<svg width="32" height="32" viewBox="0 0 32 32" fill="none" xmlns="http://www.w3.org/2000/svg">
<rect width="32" height="32" fill="white"/>
<path d="M17.9463 5C15.4329 5.00009 13.302 6.62929 12.5469 8.88867C11.8498 8.21832 10.9028 7.80577 9.85938 7.80566C7.71729 7.80566 5.98047 9.54252 5.98047 11.6846C5.98049 12.0841 6.04113 12.4694 6.15332 12.832C4.87722 13.467 4 14.7836 4 16.3057C4.00014 18.4476 5.73691 20.1836 7.87891 20.1836C8.36665 20.1835 8.83273 20.0921 9.2627 19.9277C10.3071 21.1927 11.8867 21.999 13.6553 21.999C14.761 21.999 15.7924 21.6831 16.666 21.1377C17.3319 21.676 18.1786 21.999 19.1016 21.999C20.0808 21.999 20.9746 21.6358 21.6572 21.0371C22.0566 21.1259 22.4714 21.1748 22.8975 21.1748C26.0422 21.1748 28.5917 18.6251 28.5918 15.4805C28.5918 12.5653 26.4011 10.1625 23.5762 9.82715C23.1587 7.09377 20.7964 5 17.9463 5Z" fill="#A7B4E6"/>
<path d="M27.1844 26.4449C27.1488 26.4823 27.0495 26.5336 26.8867 26.599L26.6424 26.627C26.4439 26.585 26.3243 26.5476 26.2836 26.515L26.1843 26.4099C26.1436 26.3819 26.0902 26.3188 26.024 26.2208C25.9986 26.1974 25.9757 26.1601 25.9553 26.1087C25.94 26.0527 25.9324 26.0083 25.9324 25.9757C25.9324 25.957 25.9222 25.9243 25.9019 25.8776C25.8866 25.8262 25.879 25.7936 25.879 25.7795L25.8713 25.2122C25.8713 25.1795 25.8815 25.0885 25.9019 24.9391L25.9248 24.715V24.6099C25.9299 24.5819 25.9375 24.5445 25.9477 24.4978C25.9579 24.4465 25.968 24.3951 25.9782 24.3437C26.0138 24.2037 26.0317 24.1173 26.0317 24.0846L26.2225 23.5803L26.2759 23.5243L26.337 23.4332C26.337 23.3912 26.3854 23.3212 26.4821 23.2231C26.5177 23.1951 26.5609 23.1671 26.6118 23.1391C26.6678 23.1064 26.7085 23.09 26.734 23.09L26.9706 23.041L27.1691 23.055L27.276 23.1111L27.6272 23.3702L27.6806 23.5243C27.5941 23.599 27.533 23.6363 27.4974 23.6363L27.276 23.5383C27.2709 23.5336 27.2556 23.522 27.2302 23.5033C27.2048 23.4799 27.1742 23.4636 27.1386 23.4542C27.103 23.4402 27.0622 23.4332 27.0164 23.4332C26.9859 23.4332 26.935 23.4519 26.8638 23.4893C26.7976 23.522 26.7645 23.5523 26.7645 23.5803C26.7391 23.599 26.6958 23.6644 26.6347 23.7764C26.5788 23.8838 26.5508 23.9515 26.5508 23.9795L26.3905 24.736L26.3523 25.3873L26.3905 25.8916C26.421 25.9943 26.4566 26.0574 26.4973 26.0807L26.6424 26.1718L26.8256 26.1297L26.9401 26.0807L27.1004 25.9336C27.1157 25.9196 27.1462 25.8823 27.192 25.8216C27.2429 25.7609 27.2811 25.7165 27.3065 25.6885L27.4287 25.5414L27.4592 25.4854C27.4948 25.4574 27.5356 25.3943 27.5814 25.2963C27.5814 25.2636 27.5992 25.2029 27.6348 25.1142C27.6653 25.0115 27.6806 24.9554 27.6806 24.9461V24.6449C27.3549 24.8037 27.1768 24.8971 27.1462 24.9251L27.047 24.9741L26.8867 25.0161H26.8256L26.7263 24.9741L26.6729 24.876L26.8867 24.6729C26.9121 24.6496 26.9656 24.6169 27.047 24.5749C27.1284 24.5282 27.1793 24.4955 27.1997 24.4768C27.22 24.4628 27.3167 24.4185 27.4898 24.3437C27.617 24.2924 27.701 24.255 27.7417 24.2317L27.8944 24.1757L28.1157 24.0846L28.3142 24.0566C28.4466 24.0379 28.5229 24.0286 28.5433 24.0286L28.5509 24.1686L28.4745 24.2807C28.444 24.29 28.4186 24.3017 28.3982 24.3157C28.3829 24.3251 28.3702 24.3367 28.36 24.3507L28.2074 24.4348L28.1157 24.4908L28.131 24.827L28.1463 25.2262L28.1692 25.6815C28.1845 25.8916 28.1921 26.0457 28.1921 26.1438V26.2908L28.1845 26.7951L28.1616 26.8652L28.047 26.9002L27.8867 26.7531C27.8511 26.6224 27.8333 26.543 27.8333 26.515L27.818 26.2978L27.8028 26.1017L27.7951 25.6955L27.5279 26.1017L27.1844 26.4449Z" fill="#8798D0"/>
<path d="M23.3102 26.0037V26.3329L23.272 26.592C23.2415 26.62 23.2033 26.6317 23.1575 26.6271C23.1219 26.6271 23.0888 26.6107 23.0582 26.578L22.9895 26.452C22.9641 26.4053 22.9412 26.2862 22.9208 26.0948C22.9005 25.9033 22.8903 25.7749 22.8903 25.7095L22.875 25.4084L22.8903 25.2683C22.8903 25.2263 22.8827 25.1702 22.8674 25.1002C22.8623 25.0675 22.8572 25.0348 22.8521 25.0021C22.847 24.9648 22.8445 24.9344 22.8445 24.9111V24.4348C22.8445 24.3695 22.8547 24.1967 22.875 23.9165C22.8801 23.8278 22.8852 23.7414 22.8903 23.6574C22.8954 23.5733 22.8979 23.501 22.8979 23.4403L22.9514 23.3142C22.9972 23.2815 23.043 23.2652 23.0888 23.2652C23.1295 23.2652 23.1778 23.2698 23.2338 23.2792C23.2745 23.3212 23.2949 23.3586 23.2949 23.3912C23.2949 23.4379 23.3025 23.5033 23.3178 23.5873L23.3331 23.7905C23.384 23.8698 23.4298 23.9282 23.4705 23.9656C23.5061 24.0356 23.6664 24.2457 23.9514 24.5959C24.2415 24.9601 24.3967 25.1656 24.4171 25.2123L24.5469 25.3804C24.5978 25.4364 24.6639 25.5204 24.7454 25.6325C24.8319 25.7399 24.8751 25.8053 24.8751 25.8286L24.9362 25.8916V25.0932L24.9591 24.1547V23.6014C24.9591 23.578 24.9642 23.55 24.9744 23.5173C24.9846 23.48 24.9922 23.4519 24.9973 23.4333C25.0126 23.3492 25.0456 23.2745 25.0965 23.2091L25.2034 23.1671C25.2441 23.1671 25.2874 23.1858 25.3332 23.2231L25.3714 23.6294V25.8986C25.3714 25.9874 25.3688 26.0597 25.3637 26.1158L25.3561 26.3469V26.459C25.3561 26.4916 25.3434 26.529 25.3179 26.571C25.2925 26.6084 25.267 26.6271 25.2416 26.6271H25.1118L24.9896 26.578C24.8726 26.4099 24.7912 26.3049 24.7454 26.2628C24.6639 26.1741 24.5087 25.9827 24.2797 25.6885C24.2237 25.6045 24.1423 25.4994 24.0354 25.3733C24.0252 25.3407 23.9794 25.2753 23.898 25.1772C23.8216 25.0745 23.7707 25.0068 23.7453 24.9741C23.5723 24.7733 23.4807 24.6519 23.4705 24.6099L23.3331 24.4348V24.9741L23.3178 25.7095L23.3102 26.0037Z" fill="#8798D0"/>
<path d="M20.7108 24.687C20.7261 24.5469 20.7337 24.4419 20.7337 24.3718V24.3228L20.7414 24.1757L20.7566 24.0076V23.9656C20.7566 23.8956 20.7897 23.7742 20.8559 23.6014L20.9093 23.5384L21.0238 23.4963L21.1002 23.5103L21.1689 23.6224L21.1536 25.1212L21.1612 25.5345L21.1689 25.6886L21.1918 25.8496L21.2376 26.0107L21.3139 26.0738L21.3903 26.1228L21.5048 26.1438L21.5964 26.0808C21.6167 26.0574 21.6447 26.0014 21.6803 25.9127C21.7211 25.8193 21.7414 25.7586 21.7414 25.7306C21.7414 25.7072 21.7541 25.6559 21.7796 25.5765C21.7898 25.5391 21.8025 25.4854 21.8178 25.4154C21.833 25.3454 21.8407 25.2963 21.8407 25.2683L21.8712 25.1142L21.8788 24.9041L21.9017 23.9166C21.9017 23.8979 21.8763 23.7018 21.8254 23.3282L21.7949 23.1391L21.9246 23.0131H22.0773L22.1231 23.0691C22.1231 23.0878 22.1384 23.1298 22.1689 23.1952C22.1995 23.2605 22.2147 23.3002 22.2147 23.3142C22.2504 23.4356 22.2682 23.5103 22.2682 23.5384V23.6014L22.2911 23.7835C22.3063 23.8582 22.314 23.9189 22.314 23.9656L22.3445 24.5959L22.314 25.1212C22.314 25.1399 22.2987 25.2146 22.2682 25.3454C22.2376 25.4948 22.2224 25.5788 22.2224 25.5975V25.6395C22.2224 25.6675 22.202 25.7423 22.1613 25.8637C22.1511 25.901 22.1409 25.9384 22.1308 25.9757C22.1206 26.0084 22.1129 26.0388 22.1079 26.0668C22.1079 26.0948 22.0875 26.1298 22.0468 26.1718C22.0468 26.1952 22.0264 26.2372 21.9857 26.2979C21.945 26.3586 21.9094 26.4053 21.8788 26.438L21.7643 26.543C21.7287 26.5757 21.6931 26.5921 21.6574 26.5921L21.4284 26.6131C21.3928 26.6131 21.3165 26.5967 21.1994 26.564L21.0849 26.459C20.9678 26.3936 20.9093 26.3399 20.9093 26.2979C20.9093 26.2652 20.866 26.1812 20.7795 26.0458C20.7592 25.9991 20.7414 25.9174 20.7261 25.8006C20.7159 25.6792 20.7108 25.5905 20.7108 25.5345L20.6956 24.9672L20.7108 24.687Z" fill="#8798D0"/>
<path d="M18.6001 25.0232C18.6306 24.7244 18.6459 24.54 18.6459 24.4699L18.6993 24.2738L18.7222 23.9656L18.5925 23.9796C18.5416 23.9423 18.5161 23.9049 18.5161 23.8676L18.5237 23.7765L18.5925 23.6294L18.6383 23.5244L18.8902 23.3283C18.9665 23.3003 19.0225 23.2863 19.0581 23.2863H19.3864L19.5085 23.3283C19.5391 23.3283 19.59 23.3633 19.6612 23.4333C19.6714 23.4427 19.7197 23.48 19.8063 23.5454C19.8928 23.6061 19.936 23.6505 19.936 23.6785C20.0073 23.7765 20.0429 23.8396 20.0429 23.8676L20.0887 24.0637L20.1651 24.2738L20.1956 24.638L20.1422 25.2894C20.1371 25.3361 20.1244 25.4038 20.104 25.4925C20.0836 25.5765 20.0633 25.6396 20.0429 25.6816L19.9895 25.7867L19.936 25.9337C19.936 25.9477 19.9004 26.0014 19.8292 26.0948C19.7528 26.1929 19.7147 26.2512 19.7147 26.2699L19.6612 26.361L19.6078 26.424C19.5416 26.4847 19.4907 26.5151 19.4551 26.5151L19.333 26.5851L19.1192 26.5991C18.9716 26.5524 18.8825 26.5127 18.852 26.48L18.707 26.347L18.5696 25.9828V25.4435L18.6001 25.0232ZM19.0429 25.8847C19.0836 25.9874 19.1039 26.0551 19.1039 26.0878L19.165 26.1649L19.3482 26.0388C19.3482 26.0108 19.4017 25.9174 19.5085 25.7586L19.6154 25.5905C19.6154 25.5532 19.6358 25.5042 19.6765 25.4435L19.707 25.1353L19.7376 24.8972V24.3298C19.707 24.2271 19.6918 24.1617 19.6918 24.1337C19.6918 24.101 19.6739 24.038 19.6383 23.9446C19.5976 23.8793 19.4805 23.7929 19.2872 23.6855L19.1574 23.6995C19.1574 23.7415 19.1472 23.8793 19.1268 24.1127L19.1039 24.4839L19.0734 24.8411L19.0429 25.1633V25.8847Z" fill="#8798D0"/>
<path d="M16.1075 24.9391C15.9701 24.7617 15.8785 24.6566 15.8327 24.6239C15.8327 24.5866 15.7971 24.5329 15.7258 24.4628C15.7156 24.4395 15.6724 24.3554 15.596 24.2107C15.5248 24.0613 15.4739 23.9702 15.4434 23.9375C15.4434 23.9049 15.4306 23.8488 15.4052 23.7695C15.3798 23.6527 15.367 23.5967 15.367 23.6014C15.3416 23.4566 15.3289 23.3656 15.3289 23.3282V23.2862C15.3289 23.2442 15.3492 23.1905 15.3899 23.1251L15.4434 23.0691L15.6113 23.1111C15.6877 23.1765 15.7258 23.2278 15.7258 23.2652L15.7869 23.4263L15.8327 23.5243V23.5803C15.8327 23.5944 15.8531 23.6434 15.8938 23.7274C15.9345 23.8115 15.9548 23.8652 15.9548 23.8885L16.0083 23.9375L16.1304 24.2037C16.2068 24.3438 16.2628 24.4302 16.2984 24.4628C16.2984 24.5002 16.3366 24.5539 16.4129 24.6239L16.535 24.722C16.6114 24.6519 16.6775 24.5726 16.7335 24.4839C16.7946 24.3951 16.8328 24.3414 16.848 24.3228L16.9244 24.2037C16.9244 24.185 16.9651 24.129 17.0465 24.0356C17.1178 23.9516 17.1534 23.9025 17.1534 23.8885L17.2145 23.8325L17.2679 23.7414C17.2934 23.6947 17.3417 23.6224 17.413 23.5243C17.5453 23.3375 17.6114 23.2325 17.6114 23.2091L17.7259 23.1111C17.7718 23.1111 17.8303 23.0737 17.9015 22.999H17.955L18.016 23.0481V23.2652C17.9753 23.3305 17.955 23.3842 17.955 23.4263C17.9346 23.4636 17.8914 23.536 17.8252 23.6434C17.759 23.7508 17.7259 23.8185 17.7259 23.8465L17.6114 24.0426L17.4435 24.3088C17.4028 24.3788 17.3341 24.4675 17.2374 24.5749C17.1356 24.6963 17.0669 24.7874 17.0312 24.8481L16.848 25.0652V25.8426L16.9244 26.8302L16.8709 26.9282L16.8175 26.9843H16.703L16.5885 26.8722L16.5198 26.7671L16.4816 26.613V26.4379L16.4358 26.1998L16.4129 25.9827V25.8286C16.4129 25.7539 16.4103 25.6862 16.4053 25.6255C16.4002 25.5648 16.3951 25.5111 16.39 25.4644C16.3747 25.3383 16.3671 25.2239 16.3671 25.1212L16.1075 24.9391Z" fill="#8798D0"/>
<path d="M12.7677 26.0037V26.3329L12.7295 26.592C12.699 26.62 12.6608 26.6317 12.615 26.6271C12.5794 26.6271 12.5463 26.6107 12.5158 26.578L12.447 26.452C12.4216 26.4053 12.3987 26.2862 12.3783 26.0948C12.358 25.9033 12.3478 25.7749 12.3478 25.7095L12.3325 25.4084L12.3478 25.2683C12.3478 25.2263 12.3402 25.1702 12.3249 25.1002C12.3198 25.0675 12.3147 25.0348 12.3096 25.0021C12.3045 24.9648 12.302 24.9344 12.302 24.9111V24.4348C12.302 24.3695 12.3122 24.1967 12.3325 23.9165C12.3376 23.8278 12.3427 23.7414 12.3478 23.6574C12.3529 23.5733 12.3554 23.501 12.3554 23.4403L12.4089 23.3142C12.4547 23.2815 12.5005 23.2652 12.5463 23.2652C12.587 23.2652 12.6354 23.2698 12.6913 23.2792C12.7321 23.3212 12.7524 23.3586 12.7524 23.3912C12.7524 23.4379 12.76 23.5033 12.7753 23.5873L12.7906 23.7905C12.8415 23.8698 12.8873 23.9282 12.928 23.9656C12.9636 24.0356 13.1239 24.2457 13.4089 24.5959C13.699 24.9601 13.8543 25.1656 13.8746 25.2123L14.0044 25.3804C14.0553 25.4364 14.1214 25.5204 14.2029 25.6325C14.2894 25.7399 14.3327 25.8053 14.3327 25.8286L14.3937 25.8916V25.0932L14.4166 24.1547V23.6014C14.4166 23.578 14.4217 23.55 14.4319 23.5173C14.4421 23.48 14.4497 23.4519 14.4548 23.4333C14.4701 23.3492 14.5032 23.2745 14.554 23.2091L14.6609 23.1671C14.7016 23.1671 14.7449 23.1858 14.7907 23.2231L14.8289 23.6294V25.8986C14.8289 25.9874 14.8263 26.0597 14.8212 26.1158L14.8136 26.3469V26.459C14.8136 26.4916 14.8009 26.529 14.7754 26.571C14.75 26.6084 14.7245 26.6271 14.6991 26.6271H14.5693L14.4472 26.578C14.3301 26.4099 14.2487 26.3049 14.2029 26.2628C14.1214 26.1741 13.9662 25.9827 13.7372 25.6885C13.6812 25.6045 13.5998 25.4994 13.4929 25.3733C13.4827 25.3407 13.4369 25.2753 13.3555 25.1772C13.2792 25.0745 13.2283 25.0068 13.2028 24.9741C13.0298 24.7733 12.9382 24.6519 12.928 24.6099L12.7906 24.4348V24.9741L12.7753 25.7095L12.7677 26.0037Z" fill="#8798D0"/>
<path d="M10.1683 24.687C10.1836 24.5469 10.1912 24.4419 10.1912 24.3718V24.3228L10.1989 24.1757L10.2141 24.0076V23.9656C10.2141 23.8956 10.2472 23.7742 10.3134 23.6014L10.3668 23.5384L10.4813 23.4963L10.5577 23.5103L10.6264 23.6224L10.6111 25.1212L10.6188 25.5345L10.6264 25.6886L10.6493 25.8496L10.6951 26.0107L10.7714 26.0738L10.8478 26.1228L10.9623 26.1438L11.0539 26.0808C11.0743 26.0574 11.1022 26.0014 11.1379 25.9127C11.1786 25.8193 11.1989 25.7586 11.1989 25.7306C11.1989 25.7072 11.2117 25.6559 11.2371 25.5765C11.2473 25.5391 11.26 25.4854 11.2753 25.4154C11.2905 25.3454 11.2982 25.2963 11.2982 25.2683L11.3287 25.1142L11.3364 24.9041L11.3593 23.9166C11.3593 23.8979 11.3338 23.7018 11.2829 23.3282L11.2524 23.1391L11.3822 23.0131H11.5348L11.5806 23.0691C11.5806 23.0878 11.5959 23.1298 11.6264 23.1952C11.657 23.2605 11.6723 23.3002 11.6723 23.3142C11.7079 23.4356 11.7257 23.5103 11.7257 23.5384V23.6014L11.7486 23.7835C11.7639 23.8582 11.7715 23.9189 11.7715 23.9656L11.802 24.5959L11.7715 25.1212C11.7715 25.1399 11.7562 25.2146 11.7257 25.3454C11.6952 25.4948 11.6799 25.5788 11.6799 25.5975V25.6395C11.6799 25.6675 11.6595 25.7423 11.6188 25.8637C11.6086 25.901 11.5985 25.9384 11.5883 25.9757C11.5781 26.0084 11.5705 26.0388 11.5654 26.0668C11.5654 26.0948 11.545 26.1298 11.5043 26.1718C11.5043 26.1952 11.4839 26.2372 11.4432 26.2979C11.4025 26.3586 11.3669 26.4053 11.3364 26.438L11.2218 26.543C11.1862 26.5757 11.1506 26.5921 11.115 26.5921L10.8859 26.6131C10.8503 26.6131 10.774 26.5967 10.6569 26.564L10.5424 26.459C10.4254 26.3936 10.3668 26.3399 10.3668 26.2979C10.3668 26.2652 10.3236 26.1812 10.2371 26.0458C10.2167 25.9991 10.1989 25.9174 10.1836 25.8006C10.1734 25.6792 10.1683 25.5905 10.1683 25.5345L10.1531 24.9672L10.1683 24.687Z" fill="#8798D0"/>
<path d="M7.26359 25.4013L7.25595 25.2893L7.31702 25.1492L7.51551 25.0021L7.53078 24.4628V24.0916L7.27885 24.1756C7.26867 24.1756 7.24068 24.185 7.19488 24.2037C7.14907 24.2223 7.11599 24.2317 7.09564 24.2317L6.95059 24.2037L6.90479 24.1196V24.0216C6.93023 23.9982 6.95568 23.9702 6.98113 23.9375C7.00657 23.9002 7.03456 23.8675 7.0651 23.8395C7.08037 23.8395 7.11345 23.8255 7.16434 23.7974C7.21524 23.7694 7.26104 23.7461 7.30176 23.7274L7.39336 23.6784C7.5664 23.599 7.85395 23.5009 8.25601 23.3842L8.5461 23.2932L8.96598 23.2651L9.08812 23.3282L9.11102 23.3982C9.10084 23.4309 9.08049 23.4589 9.04995 23.4823C9.01942 23.5009 8.98888 23.5126 8.95834 23.5173L8.76749 23.6083L8.62244 23.6714L8.37816 23.7414L8.22547 23.8044C8.2153 23.8044 8.15931 23.8231 8.05753 23.8605C8.02699 23.8698 7.98882 23.8838 7.94302 23.9025C7.9023 23.9165 7.87685 23.9235 7.86667 23.9235L7.93538 24.0636L7.95065 24.2247L7.94302 24.785C7.96337 24.771 8.07534 24.7243 8.27891 24.6449C8.37052 24.6169 8.45704 24.5842 8.53847 24.5469C8.6657 24.4862 8.74713 24.4558 8.78276 24.4558L8.93544 24.4068C8.96089 24.4068 9.0245 24.3928 9.12629 24.3648H9.43165V24.5048L9.37058 24.5469C9.35531 24.5562 9.22808 24.6122 8.98888 24.7149L8.78276 24.799L8.59191 24.9111L8.4774 24.9531C8.46213 24.9718 8.35016 25.0348 8.1415 25.1422C8.06007 25.1795 7.99645 25.2122 7.95065 25.2402V25.8706L7.94302 26.1227L8.1415 26.0457C8.36543 25.9523 8.55628 25.8776 8.71405 25.8216C8.87182 25.7655 9.01433 25.7282 9.14156 25.7095L9.38585 25.6675L9.58433 25.6605L9.63014 25.6955L9.65304 25.7445L9.56143 25.8426C9.50036 25.8846 9.4571 25.9196 9.43165 25.9476C9.3146 26.0177 9.23571 26.0527 9.195 26.0527C9.17464 26.0527 9.10339 26.0807 8.98125 26.1367C8.8591 26.1974 8.7853 26.2278 8.75986 26.2278C8.72932 26.2278 8.6657 26.2535 8.56901 26.3048C8.47231 26.3515 8.40869 26.3819 8.37816 26.3959L8.22547 26.4869C8.21021 26.4869 8.1644 26.5126 8.08806 26.564C8.01681 26.6107 7.97101 26.634 7.95065 26.634C7.88958 26.6667 7.83868 26.683 7.79797 26.683L7.63002 26.7111L7.53078 26.676L7.49261 26.62L7.43153 26.536L7.50787 26.2768L7.51551 26.0877L7.50787 25.4364L7.37046 25.4574L7.26359 25.4013Z" fill="#8798D0"/>
<path d="M4.74814 25.1213C4.74814 25.1446 4.71251 25.1843 4.64126 25.2404C4.63108 25.2497 4.60818 25.2707 4.57255 25.3034C4.53693 25.3361 4.51912 25.3618 4.51912 25.3804L4.46568 25.4365V26.431L4.42751 26.5361L4.36643 26.5921H4.30536L4.16795 26.5291C4.13232 26.445 4.11451 26.3843 4.11451 26.347V26.2279L4.09161 26.0248C4.07125 25.9034 4.06107 25.8287 4.06107 25.8007L4.0458 25.4154L4.03054 25.1563L4 24.0917C4 24.045 4.01018 23.9003 4.03054 23.6575L4.06107 23.2652C4.0967 23.2326 4.12978 23.2045 4.16031 23.1812C4.19594 23.1532 4.22902 23.1392 4.25956 23.1392H4.32826L4.38934 23.1952C4.38934 23.2419 4.41478 23.3003 4.46568 23.3703V24.9182L4.79394 24.526C4.89064 24.4466 5.06368 24.2435 5.31306 23.9166C5.37413 23.8606 5.47592 23.7345 5.61842 23.5384L5.75583 23.3703C5.9136 23.2256 5.99249 23.1532 5.99249 23.1532L6.1528 23.1182L6.22151 23.1392V23.1952C6.14517 23.3073 6.107 23.3843 6.107 23.4263C6.02048 23.501 5.97722 23.5594 5.97722 23.6014C5.94668 23.6295 5.86525 23.7368 5.73293 23.9236C5.61078 24.0917 5.54208 24.1828 5.52681 24.1968C5.47592 24.2388 5.37413 24.3765 5.22145 24.61L5.37413 24.7991C5.37413 24.8318 5.40975 24.8902 5.481 24.9742C5.53699 25.0442 5.56498 25.0863 5.56498 25.1003C5.9874 25.768 6.1986 26.1228 6.1986 26.1649C6.29021 26.2583 6.33602 26.3283 6.33602 26.375C6.33602 26.4123 6.35892 26.4707 6.40472 26.5501V26.6762L6.1986 26.6972L5.94668 26.459L5.88561 26.347L5.68712 26.0948C5.65659 26.0715 5.61842 26.0178 5.57261 25.9337C5.53699 25.859 5.50391 25.8077 5.47337 25.7797L4.91609 24.9532L4.74814 25.1213Z" fill="#8798D0"/>
</svg>
