<svg width="40" height="40" viewBox="0 0 40 40" fill="none" xmlns="http://www.w3.org/2000/svg">
<g clip-path="url(#clip0_94_793)">
<path d="M21.4285 2.85718C20.2919 2.85718 19.2018 3.30871 18.398 4.11243C17.5943 4.91616 17.1428 6.00625 17.1428 7.14289V8.57146H13.2142C12.3617 8.57146 11.5442 8.91011 10.9414 9.51291C10.3386 10.1157 9.99994 10.9333 9.99994 11.7857V15.7143H8.57136C8.00855 15.7143 7.45125 15.8252 6.93129 16.0405C6.41132 16.2559 5.93887 16.5716 5.5409 16.9696C5.14294 17.3675 4.82725 17.84 4.61188 18.36C4.3965 18.8799 4.28564 19.4372 4.28564 20C4.28564 20.5628 4.3965 21.1201 4.61188 21.6401C4.82725 22.1601 5.14294 22.6325 5.5409 23.0305C5.93887 23.4285 6.41132 23.7441 6.93129 23.9595C7.45125 24.1749 8.00855 24.2857 8.57136 24.2857H9.99994V28.2143C9.99994 29.0668 10.3386 29.8844 10.9414 30.4872C11.5442 31.09 12.3617 31.4286 13.2142 31.4286H17.1428V32.8572C17.1428 33.9938 17.5943 35.0839 18.398 35.8876C19.2018 36.6914 20.2919 37.1429 21.4285 37.1429C22.5651 37.1429 23.6552 36.6914 24.459 35.8876C25.2627 35.0839 25.7142 33.9938 25.7142 32.8572V31.4286H29.6428C30.4953 31.4286 31.3128 31.09 31.9156 30.4872C32.5184 29.8844 32.8571 29.0668 32.8571 28.2143V22.8572H29.9999C29.2422 22.8572 28.5154 22.5562 27.9796 22.0203C27.4438 21.4845 27.1428 20.7578 27.1428 20C27.1428 19.2423 27.4438 18.5155 27.9796 17.9797C28.5154 17.4439 29.2422 17.1429 29.9999 17.1429H32.8571V11.7857C32.8571 10.9333 32.5184 10.1157 31.9156 9.51291C31.3128 8.91011 30.4953 8.57146 29.6428 8.57146H25.7142V7.14289C25.7142 6.00625 25.2627 4.91616 24.459 4.11243C23.6552 3.30871 22.5651 2.85718 21.4285 2.85718Z" fill="url(#paint0_linear_94_793)"/>
<path d="M21.4285 2.85718C20.2919 2.85718 19.2018 3.30871 18.398 4.11243C17.5943 4.91616 17.1428 6.00625 17.1428 7.14289V8.57146H13.2142C12.3617 8.57146 11.5442 8.91011 10.9414 9.51291C10.3386 10.1157 9.99994 10.9333 9.99994 11.7857V15.7143H8.57136C8.00855 15.7143 7.45125 15.8252 6.93129 16.0405C6.41132 16.2559 5.93887 16.5716 5.5409 16.9696C5.14294 17.3675 4.82725 17.84 4.61188 18.36C4.3965 18.8799 4.28564 19.4372 4.28564 20C4.28564 20.5628 4.3965 21.1201 4.61188 21.6401C4.82725 22.1601 5.14294 22.6325 5.5409 23.0305C5.93887 23.4285 6.41132 23.7441 6.93129 23.9595C7.45125 24.1749 8.00855 24.2857 8.57136 24.2857H9.99994V28.2143C9.99994 29.0668 10.3386 29.8844 10.9414 30.4872C11.5442 31.09 12.3617 31.4286 13.2142 31.4286H17.1428V32.8572C17.1428 33.9938 17.5943 35.0839 18.398 35.8876C19.2018 36.6914 20.2919 37.1429 21.4285 37.1429C22.5651 37.1429 23.6552 36.6914 24.459 35.8876C25.2627 35.0839 25.7142 33.9938 25.7142 32.8572V31.4286H29.6428C30.4953 31.4286 31.3128 31.09 31.9156 30.4872C32.5184 29.8844 32.8571 29.0668 32.8571 28.2143V22.8572H29.9999C29.2422 22.8572 28.5154 22.5562 27.9796 22.0203C27.4438 21.4845 27.1428 20.7578 27.1428 20C27.1428 19.2423 27.4438 18.5155 27.9796 17.9797C28.5154 17.4439 29.2422 17.1429 29.9999 17.1429H32.8571V11.7857C32.8571 10.9333 32.5184 10.1157 31.9156 9.51291C31.3128 8.91011 30.4953 8.57146 29.6428 8.57146H25.7142V7.14289C25.7142 6.00625 25.2627 4.91616 24.459 4.11243C23.6552 3.30871 22.5651 2.85718 21.4285 2.85718Z" fill="url(#paint1_linear_94_793)" fill-opacity="0.7"/>
</g>
<defs>
<linearGradient id="paint0_linear_94_793" x1="9.04707" y1="0.95289" x2="28.1999" y2="36.42" gradientUnits="userSpaceOnUse">
<stop stop-color="#DCE2F5"/>
<stop offset="0.6" stop-color="#8798D0"/>
<stop offset="1" stop-color="#6F84C5"/>
</linearGradient>
<linearGradient id="paint1_linear_94_793" x1="22.9928" y1="7.06718" x2="31.0099" y2="40.2615" gradientUnits="userSpaceOnUse">
<stop offset="0.533" stop-color="#FFF3F5" stop-opacity="0"/>
<stop offset="1" stop-color="#FFF3F5"/>
</linearGradient>
<clipPath id="clip0_94_793">
<rect width="40" height="40" fill="white"/>
</clipPath>
</defs>
</svg>
