<svg width="40" height="40" viewBox="0 0 40 40" fill="none" xmlns="http://www.w3.org/2000/svg">
<g clip-path="url(#clip0_94_805)">
<path d="M5 20C5 18.0302 5.38799 16.0796 6.14181 14.2597C6.89563 12.4399 8.00052 10.7863 9.3934 9.3934C10.7863 8.00052 12.4399 6.89563 14.2597 6.14181C16.0796 5.38799 18.0302 5 20 5C21.9698 5 23.9204 5.38799 25.7403 6.14181C27.5601 6.89563 29.2137 8.00052 30.6066 9.3934C31.9995 10.7863 33.1044 12.4399 33.8582 14.2597C34.612 16.0796 35 18.0302 35 20C35 23.9782 33.4196 27.7936 30.6066 30.6066C27.7936 33.4196 23.9782 35 20 35C16.0218 35 12.2064 33.4196 9.3934 30.6066C6.58035 27.7936 5 23.9782 5 20Z" fill="url(#paint0_linear_94_805)"/>
<path d="M25.3001 15.41L18.1251 22.605L14.6351 19.115C14.5189 18.9988 14.3809 18.9066 14.2291 18.8437C14.0772 18.7808 13.9145 18.7485 13.7501 18.7485C13.5858 18.7485 13.423 18.7808 13.2712 18.8437C13.1193 18.9066 12.9813 18.9988 12.8651 19.115C12.7489 19.2312 12.6567 19.3692 12.5938 19.5211C12.5309 19.6729 12.4985 19.8357 12.4985 20C12.4985 20.1644 12.5309 20.3271 12.5938 20.479C12.6567 20.6308 12.7489 20.7688 12.8651 20.885L17.2401 25.26C17.3562 25.3764 17.4942 25.4688 17.646 25.5318C17.7979 25.5948 17.9607 25.6273 18.1251 25.6273C18.2895 25.6273 18.4523 25.5948 18.6042 25.5318C18.7561 25.4688 18.894 25.3764 19.0101 25.26L27.0701 17.175C27.2975 16.939 27.4231 16.623 27.4198 16.2953C27.4165 15.9675 27.2846 15.6542 27.0525 15.4227C26.8204 15.1913 26.5066 15.0603 26.1789 15.0579C25.8511 15.0555 25.5355 15.182 25.3001 15.41Z" fill="url(#paint1_linear_94_805)"/>
</g>
<defs>
<linearGradient id="paint0_linear_94_805" x1="6.0725" y1="10.625" x2="26.775" y2="32.135" gradientUnits="userSpaceOnUse">
<stop stop-color="#DCE2F5"/>
<stop offset="0.6" stop-color="#8798D0"/>
<stop offset="1" stop-color="#6F84C5"/>
</linearGradient>
<linearGradient id="paint1_linear_94_805" x1="15.3001" y1="16.1225" x2="17.6901" y2="28.025" gradientUnits="userSpaceOnUse">
<stop stop-color="white"/>
<stop offset="1" stop-color="#FFF3F5"/>
</linearGradient>
<clipPath id="clip0_94_805">
<rect width="40" height="40" fill="white"/>
</clipPath>
</defs>
</svg>
