<svg width="40" height="40" viewBox="0 0 40 40" fill="none" xmlns="http://www.w3.org/2000/svg">
<g clip-path="url(#clip0_94_797)">
<path d="M25.095 30.66C26.055 31.0225 27.2525 31.25 28.75 31.25C30.245 31.25 31.4425 31.025 32.4 30.6625C36.245 29.2075 36.245 25.5625 36.245 25.5625C36.245 23.87 34.8725 22.5 33.1825 22.5H24.3125C22.62 22.5 21.25 23.87 21.25 25.5625C21.25 25.5625 21.25 29.205 25.095 30.6625" fill="url(#paint0_linear_94_797)"/>
<path d="M25.095 30.66C26.055 31.0225 27.2525 31.25 28.75 31.25C30.245 31.25 31.4425 31.025 32.4 30.6625C36.245 29.2075 36.245 25.5625 36.245 25.5625C36.245 23.87 34.8725 22.5 33.1825 22.5H24.3125C22.62 22.5 21.25 23.87 21.25 25.5625C21.25 25.5625 21.25 29.205 25.095 30.6625" fill="url(#paint1_radial_94_797)" fill-opacity="0.35"/>
<path d="M23.75 26.25C23.75 25.2554 23.3549 24.3016 22.6517 23.5983C21.9484 22.8951 20.9946 22.5 20 22.5H7.5C6.50544 22.5 5.55161 22.8951 4.84835 23.5983C4.14509 24.3016 3.75 25.2554 3.75 26.25V26.4375C3.75 26.4375 3.75 33.75 13.75 33.75C23.28 33.75 23.7275 27.11 23.75 26.485V26.25Z" fill="url(#paint2_linear_94_797)"/>
<path d="M23.75 26.25C23.75 25.2554 23.3549 24.3016 22.6517 23.5983C21.9484 22.8951 20.9946 22.5 20 22.5H7.5C6.50544 22.5 5.55161 22.8951 4.84835 23.5983C4.14509 24.3016 3.75 25.2554 3.75 26.25V26.4375C3.75 26.4375 3.75 33.75 13.75 33.75C23.28 33.75 23.7275 27.11 23.75 26.485V26.25Z" fill="url(#paint3_linear_94_797)"/>
<path d="M28.75 20C30.0761 20 31.3479 19.4732 32.2855 18.5355C33.2232 17.5979 33.75 16.3261 33.75 15C33.75 13.6739 33.2232 12.4021 32.2855 11.4645C31.3479 10.5268 30.0761 10 28.75 10C27.4239 10 26.1521 10.5268 25.2145 11.4645C24.2768 12.4021 23.75 13.6739 23.75 15C23.75 16.3261 24.2768 17.5979 25.2145 18.5355C26.1521 19.4732 27.4239 20 28.75 20Z" fill="url(#paint4_linear_94_797)"/>
<path d="M20 13.75C20 15.4076 19.3415 16.9973 18.1694 18.1694C16.9973 19.3415 15.4076 20 13.75 20C12.0924 20 10.5027 19.3415 9.33058 18.1694C8.15848 16.9973 7.5 15.4076 7.5 13.75C7.5 12.0924 8.15848 10.5027 9.33058 9.33058C10.5027 8.15848 12.0924 7.5 13.75 7.5C15.4076 7.5 16.9973 8.15848 18.1694 9.33058C19.3415 10.5027 20 12.0924 20 13.75Z" fill="url(#paint5_linear_94_797)"/>
</g>
<defs>
<linearGradient id="paint0_linear_94_797" x1="24.815" y1="23.6625" x2="28.0125" y2="32.4075" gradientUnits="userSpaceOnUse">
<stop offset="0.125" stop-color="#8798D0"/>
<stop offset="1" stop-color="#6F84C5"/>
</linearGradient>
<radialGradient id="paint1_radial_94_797" cx="0" cy="0" r="1" gradientUnits="userSpaceOnUse" gradientTransform="translate(19.35 26.875) rotate(-7.36814) scale(9.95016 10.3104)">
<stop offset="0.392" stop-color="#6F84C5"/>
<stop offset="1" stop-color="#6F84C5" stop-opacity="0"/>
</radialGradient>
<linearGradient id="paint2_linear_94_797" x1="8.505" y1="23.995" x2="12.5" y2="35.335" gradientUnits="userSpaceOnUse">
<stop offset="0.125" stop-color="#DCE2F5"/>
<stop offset="1" stop-color="#8798D0"/>
</linearGradient>
<linearGradient id="paint3_linear_94_797" x1="13.75" y1="21.16" x2="19.375" y2="39.8475" gradientUnits="userSpaceOnUse">
<stop stop-color="#FFF3F5" stop-opacity="0"/>
<stop offset="1" stop-color="#FFF3F5"/>
</linearGradient>
<linearGradient id="paint4_linear_94_797" x1="26.1275" y1="11.33" x2="31.225" y2="19.4675" gradientUnits="userSpaceOnUse">
<stop offset="0.125" stop-color="#8798D0"/>
<stop offset="1" stop-color="#6F84C5"/>
</linearGradient>
<linearGradient id="paint5_linear_94_797" x1="10.4725" y1="9.1625" x2="16.8425" y2="19.335" gradientUnits="userSpaceOnUse">
<stop offset="0.125" stop-color="#DCE2F5"/>
<stop offset="1" stop-color="#8798D0"/>
</linearGradient>
<clipPath id="clip0_94_797">
<rect width="40" height="40" fill="white"/>
</clipPath>
</defs>
</svg>
