<svg width="48" height="48" viewBox="0 0 48 48" fill="none" xmlns="http://www.w3.org/2000/svg">
<rect x="47.5" y="47.5" width="47" height="47" rx="23.5" transform="rotate(-180 47.5 47.5)" fill="#DCE2F5"/>
<rect x="47.5" y="47.5" width="47" height="47" rx="23.5" transform="rotate(-180 47.5 47.5)" stroke="#8798D0"/>
<path d="M24.0049 31.3106C23.9339 31.3099 23.8721 31.2932 23.8105 31.25L23.749 31.1973L16.8008 24.249C16.7476 24.1949 16.7219 24.1527 16.71 24.124L16.71 24.123C16.6948 24.0867 16.6865 24.0466 16.6865 23.999C16.6866 23.9514 16.6952 23.9123 16.71 23.877L16.71 23.876C16.7218 23.8475 16.7473 23.8052 16.8008 23.751L23.7549 16.8027C23.8462 16.7125 23.9249 16.6865 24.0078 16.6865C24.0885 16.6866 24.1607 16.7111 24.2441 16.7969L24.249 16.8018L24.3008 16.8623C24.3429 16.9219 24.3574 16.98 24.3574 17.0449C24.3574 17.1096 24.3427 17.1672 24.3008 17.2266L24.249 17.2871L17.8877 23.6484L31.2979 23.6484C31.4199 23.6485 31.4922 23.6836 31.5527 23.7441L31.5537 23.7441C31.6146 23.8051 31.6494 23.878 31.6494 24C31.6494 24.122 31.6146 24.195 31.5537 24.2559L31.5527 24.2559C31.4922 24.3164 31.42 24.3515 31.2979 24.3516L17.8877 24.3516L24.2432 30.707C24.3045 30.7684 24.3363 30.8268 24.3486 30.8916L24.3545 30.959C24.3554 31.0489 24.3292 31.1225 24.249 31.2031L24.248 31.2041C24.1679 31.2847 24.0945 31.3113 24.0049 31.3106Z" fill="#8798D0" stroke="#8798D0"/>
</svg>
