<svg width="138" height="24" viewBox="0 0 138 24" fill="none" xmlns="http://www.w3.org/2000/svg">
<path d="M130.024 20.664C129.828 20.888 129.282 21.196 128.386 21.588L127.042 21.756C125.95 21.504 125.292 21.28 125.068 21.084L124.522 20.454C124.298 20.286 124.004 19.908 123.64 19.32C123.5 19.18 123.374 18.956 123.262 18.648C123.178 18.312 123.136 18.046 123.136 17.85C123.136 17.738 123.08 17.542 122.968 17.262C122.884 16.954 122.842 16.758 122.842 16.674L122.8 13.272C122.8 13.076 122.856 12.53 122.968 11.634L123.094 10.29V9.65995C123.122 9.49195 123.164 9.26796 123.22 8.98796C123.276 8.67996 123.332 8.37196 123.388 8.06396C123.584 7.22396 123.682 6.70595 123.682 6.50995L124.732 3.48595L125.026 3.14995L125.362 2.60395C125.362 2.35195 125.628 1.93195 126.16 1.34395C126.356 1.17595 126.594 1.00795 126.874 0.839954C127.182 0.643955 127.406 0.545956 127.546 0.545956L128.848 0.251953L129.94 0.335955L130.528 0.671953L132.46 2.22595L132.754 3.14995C132.278 3.59795 131.942 3.82195 131.746 3.82195L130.528 3.23396C130.5 3.20595 130.416 3.13595 130.276 3.02395C130.136 2.88395 129.968 2.78595 129.772 2.72995C129.576 2.64595 129.352 2.60395 129.1 2.60395C128.932 2.60395 128.652 2.71595 128.26 2.93995C127.896 3.13596 127.714 3.31795 127.714 3.48595C127.574 3.59795 127.336 3.98996 127 4.66195C126.692 5.30595 126.538 5.71195 126.538 5.87995L125.656 10.416L125.446 14.322L125.656 17.346C125.824 17.962 126.02 18.34 126.244 18.48L127.042 19.026L128.05 18.774L128.68 18.48L129.562 17.598C129.646 17.514 129.814 17.29 130.066 16.926C130.346 16.562 130.556 16.296 130.696 16.128L131.368 15.246L131.536 14.91C131.732 14.742 131.956 14.364 132.208 13.776C132.208 13.58 132.306 13.216 132.502 12.684C132.67 12.068 132.754 11.732 132.754 11.676V9.86996C130.962 10.822 129.982 11.382 129.814 11.55L129.268 11.844L128.386 12.096H128.05L127.504 11.844L127.21 11.256L128.386 10.038C128.526 9.89795 128.82 9.70196 129.268 9.44995C129.716 9.16996 129.996 8.97395 130.108 8.86195C130.22 8.77795 130.752 8.51196 131.704 8.06396C132.404 7.75596 132.866 7.53195 133.09 7.39195L133.93 7.05596L135.148 6.50995L136.24 6.34196C136.968 6.22995 137.388 6.17395 137.5 6.17395L137.542 7.01395L137.122 7.68596C136.954 7.74196 136.814 7.81195 136.702 7.89595C136.618 7.95195 136.548 8.02196 136.492 8.10596L135.652 8.60995L135.148 8.94596L135.232 10.962L135.316 13.356L135.442 16.086C135.526 17.346 135.568 18.27 135.568 18.858V19.74L135.526 22.764L135.4 23.184L134.77 23.394L133.888 22.512C133.692 21.728 133.594 21.252 133.594 21.084L133.51 19.782L133.426 18.606L133.384 16.17L131.914 18.606L130.024 20.664Z" fill="#8798D0"/>
<path d="M107.327 18.0181V19.9921L107.117 21.5461C106.949 21.7141 106.739 21.7841 106.487 21.7561C106.291 21.7561 106.109 21.6581 105.941 21.4621L105.563 20.7061C105.423 20.4261 105.297 19.7121 105.185 18.5641C105.073 17.4161 105.017 16.6461 105.017 16.2541L104.933 14.4481L105.017 13.6081C105.017 13.3561 104.975 13.0201 104.891 12.6001C104.863 12.4041 104.835 12.2081 104.807 12.0121C104.779 11.7881 104.765 11.6061 104.765 11.4661V8.61006C104.765 8.21806 104.821 7.18206 104.933 5.50206C104.961 4.97006 104.989 4.45206 105.017 3.94806C105.045 3.44406 105.059 3.01006 105.059 2.64606L105.353 1.89006C105.605 1.69406 105.857 1.59606 106.109 1.59606C106.333 1.59606 106.599 1.62406 106.907 1.68006C107.131 1.93206 107.243 2.15606 107.243 2.35206C107.243 2.63206 107.285 3.02406 107.369 3.52806L107.453 4.74606C107.733 5.22206 107.985 5.57206 108.209 5.79606C108.405 6.21606 109.287 7.47606 110.855 9.57606C112.451 11.7601 113.305 12.9921 113.417 13.2721L114.131 14.2801C114.411 14.6161 114.775 15.1201 115.223 15.7921C115.699 16.4361 115.937 16.8281 115.937 16.9681L116.273 17.3461V12.5581L116.399 6.93006V3.61206C116.399 3.47206 116.427 3.30406 116.483 3.10806C116.539 2.88406 116.581 2.71606 116.609 2.60406C116.693 2.10006 116.875 1.65206 117.155 1.26006L117.743 1.00806C117.967 1.00806 118.205 1.12006 118.457 1.34406L118.667 3.78006V17.3881C118.667 17.9201 118.653 18.3541 118.625 18.6901L118.583 20.0761V20.7481C118.583 20.9441 118.513 21.1681 118.373 21.4201C118.233 21.6441 118.093 21.7561 117.953 21.7561H117.239L116.567 21.4621C115.923 20.4541 115.475 19.8241 115.223 19.5721C114.775 19.0401 113.921 17.8921 112.661 16.1281C112.353 15.6241 111.905 14.9941 111.317 14.2381C111.261 14.0421 111.009 13.6501 110.561 13.0621C110.141 12.4461 109.861 12.0401 109.721 11.8441C108.769 10.6401 108.265 9.91206 108.209 9.66006L107.453 8.61006V11.8441L107.369 16.2541L107.327 18.0181Z" fill="#8798D0"/>
<path d="M91.2207 10.122C91.3047 9.28198 91.3467 8.65198 91.3467 8.23199V7.93799L91.3887 7.05599L91.4727 6.04799V5.79599C91.4727 5.37599 91.6547 4.64799 92.0187 3.61198L92.3127 3.23399L92.9427 2.98199L93.3627 3.06599L93.7407 3.73799L93.6567 12.726L93.6987 15.204L93.7407 16.128L93.8667 17.094L94.1187 18.06L94.5387 18.438L94.9587 18.732L95.5887 18.858L96.0927 18.48C96.2047 18.34 96.3587 18.004 96.5547 17.472C96.7787 16.912 96.8907 16.548 96.8907 16.38C96.8907 16.24 96.9607 15.932 97.1007 15.456C97.1567 15.232 97.2267 14.91 97.3107 14.49C97.3947 14.07 97.4367 13.776 97.4367 13.608L97.6047 12.684L97.6467 11.424L97.7727 5.50199C97.7727 5.38998 97.6327 4.21399 97.3527 1.97399L97.1847 0.839985L97.8987 0.0839844H98.7387L98.9907 0.419985C98.9907 0.531985 99.0747 0.783985 99.2427 1.17599C99.4107 1.56799 99.4947 1.80599 99.4947 1.88999C99.6907 2.61799 99.7887 3.06598 99.7887 3.23399V3.61198L99.9147 4.70399C99.9987 5.15199 100.041 5.51599 100.041 5.79599L100.209 9.57598L100.041 12.726C100.041 12.838 99.9567 13.286 99.7887 14.07C99.6207 14.966 99.5367 15.47 99.5367 15.582V15.834C99.5367 16.002 99.4247 16.45 99.2007 17.178C99.1447 17.402 99.0887 17.626 99.0327 17.85C98.9767 18.046 98.9347 18.228 98.9067 18.396C98.9067 18.564 98.7947 18.774 98.5707 19.026C98.5707 19.166 98.4587 19.418 98.2347 19.782C98.0107 20.146 97.8147 20.426 97.6467 20.622L97.0167 21.252C96.8207 21.448 96.6247 21.546 96.4287 21.546L95.1687 21.672C94.9727 21.672 94.5527 21.574 93.9087 21.378L93.2787 20.748C92.6347 20.356 92.3127 20.034 92.3127 19.782C92.3127 19.586 92.0747 19.082 91.5987 18.27C91.4867 17.99 91.3887 17.5 91.3047 16.8C91.2487 16.072 91.2207 15.54 91.2207 15.204L91.1367 11.802L91.2207 10.122Z" fill="#8798D0"/>
<path d="M78.2745 12.1379C78.4425 10.3459 78.5265 9.23992 78.5265 8.81993L78.8205 7.64392L78.9465 5.79593L78.2325 5.87992C77.9525 5.65592 77.8125 5.43192 77.8125 5.20792L77.8545 4.66192L78.2325 3.77992L78.4845 3.14992L79.8705 1.97392C80.2905 1.80593 80.5985 1.72192 80.7945 1.72192H82.6005L83.2725 1.97392C83.4405 1.97392 83.7205 2.18392 84.1125 2.60392C84.1685 2.65992 84.4345 2.88392 84.9105 3.27592C85.3865 3.63993 85.6245 3.90593 85.6245 4.07393C86.0165 4.66192 86.2125 5.03992 86.2125 5.20792L86.4645 6.38392L86.8845 7.64392L87.0525 9.82792L86.7585 13.7339C86.7305 14.0139 86.6605 14.4199 86.5485 14.9519C86.4365 15.4559 86.3245 15.8339 86.2125 16.0859L85.9185 16.7159L85.6245 17.5979C85.6245 17.6819 85.4285 18.0039 85.0365 18.5639C84.6165 19.1519 84.4065 19.5019 84.4065 19.6139L84.1125 20.1599L83.8185 20.5379C83.4545 20.9019 83.1745 21.0839 82.9785 21.0839L82.3065 21.5039L81.1305 21.5879C80.3185 21.3079 79.8285 21.0699 79.6605 20.8739L78.8625 20.0759L78.1065 17.8919V14.6579L78.2745 12.1379ZM80.7105 17.3039C80.9345 17.9199 81.0465 18.3259 81.0465 18.5219L81.3825 18.9839L82.3905 18.2279C82.3905 18.0599 82.6845 17.4999 83.2725 16.5479L83.8605 15.5399C83.8605 15.3159 83.9725 15.0219 84.1965 14.6579L84.3645 12.8099L84.5325 11.3819V7.97992C84.3645 7.36392 84.2805 6.97192 84.2805 6.80392C84.2805 6.60792 84.1825 6.22992 83.9865 5.66992C83.7625 5.27792 83.1185 4.75992 82.0545 4.11592L81.3405 4.19992C81.3405 4.45192 81.2845 5.27792 81.1725 6.67793L81.0465 8.90392L80.8785 11.0459L80.7105 12.9779V17.3039Z" fill="#8798D0"/>
<path d="M64.7093 11.634C63.9533 10.57 63.4493 9.94 63.1973 9.744C63.1973 9.52 63.0013 9.198 62.6093 8.778C62.5533 8.638 62.3153 8.134 61.8953 7.266C61.5033 6.37 61.2233 5.824 61.0553 5.628C61.0553 5.432 60.9853 5.096 60.8453 4.62C60.7053 3.92 60.6353 3.584 60.6353 3.612C60.4953 2.744 60.4253 2.198 60.4253 1.974V1.722C60.4253 1.47 60.5373 1.148 60.7613 0.756001L61.0553 0.42L61.9793 0.671999C62.3993 1.064 62.6093 1.372 62.6093 1.596L62.9453 2.562L63.1973 3.15V3.486C63.1973 3.57 63.3093 3.864 63.5333 4.368C63.7573 4.872 63.8693 5.194 63.8693 5.334L64.1633 5.628L64.8353 7.224C65.2553 8.064 65.5633 8.582 65.7593 8.778C65.7593 9.002 65.9693 9.324 66.3893 9.744L67.0613 10.332C67.4813 9.912 67.8453 9.436 68.1533 8.904C68.4893 8.372 68.6993 8.05 68.7833 7.938L69.2033 7.224C69.2033 7.112 69.4273 6.776 69.8753 6.216C70.2673 5.712 70.4633 5.418 70.4633 5.334L70.7993 4.998L71.0933 4.452C71.2333 4.172 71.4993 3.738 71.8913 3.15C72.6193 2.03 72.9833 1.4 72.9833 1.26L73.6133 0.671999C73.8653 0.671999 74.1873 0.447999 74.5793 0H74.8733L75.2093 0.293999V1.596C74.9853 1.988 74.8733 2.31 74.8733 2.562C74.7613 2.786 74.5233 3.22 74.1593 3.864C73.7953 4.508 73.6133 4.914 73.6133 5.082L72.9833 6.258L72.0593 7.854C71.8353 8.274 71.4573 8.806 70.9253 9.45C70.3653 10.178 69.9873 10.724 69.7913 11.088L68.7833 12.39V17.052L69.2033 22.974L68.9093 23.562L68.6153 23.898H67.9853L67.3553 23.226L66.9773 22.596L66.7673 21.672V20.622L66.5153 19.194L66.3893 17.892V16.968C66.3893 16.52 66.3753 16.114 66.3473 15.75C66.3193 15.386 66.2913 15.064 66.2633 14.784C66.1793 14.028 66.1373 13.342 66.1373 12.726L64.7093 11.634Z" fill="#8798D0"/>
<path d="M46.2544 18.0181V19.9921L46.0444 21.5461C45.8764 21.7141 45.6664 21.7841 45.4144 21.7561C45.2184 21.7561 45.0364 21.6581 44.8684 21.4621L44.4904 20.7061C44.3504 20.4261 44.2244 19.7121 44.1124 18.5641C44.0004 17.4161 43.9444 16.6461 43.9444 16.2541L43.8604 14.4481L43.9444 13.6081C43.9444 13.3561 43.9024 13.0201 43.8184 12.6001C43.7904 12.4041 43.7624 12.2081 43.7344 12.0121C43.7064 11.7881 43.6924 11.6061 43.6924 11.4661V8.61006C43.6924 8.21806 43.7484 7.18206 43.8604 5.50206C43.8884 4.97006 43.9164 4.45206 43.9444 3.94806C43.9724 3.44406 43.9864 3.01006 43.9864 2.64606L44.2804 1.89006C44.5324 1.69406 44.7844 1.59606 45.0364 1.59606C45.2604 1.59606 45.5264 1.62406 45.8344 1.68006C46.0584 1.93206 46.1704 2.15606 46.1704 2.35206C46.1704 2.63206 46.2124 3.02406 46.2964 3.52806L46.3804 4.74606C46.6604 5.22206 46.9124 5.57206 47.1364 5.79606C47.3324 6.21606 48.2144 7.47606 49.7824 9.57606C51.3784 11.7601 52.2324 12.9921 52.3444 13.2721L53.0584 14.2801C53.3384 14.6161 53.7024 15.1201 54.1504 15.7921C54.6264 16.4361 54.8644 16.8281 54.8644 16.9681L55.2004 17.3461V12.5581L55.3264 6.93006V3.61206C55.3264 3.47206 55.3544 3.30406 55.4104 3.10806C55.4664 2.88406 55.5084 2.71606 55.5364 2.60406C55.6204 2.10006 55.8024 1.65206 56.0824 1.26006L56.6704 1.00806C56.8944 1.00806 57.1324 1.12006 57.3844 1.34406L57.5944 3.78006V17.3881C57.5944 17.9201 57.5804 18.3541 57.5524 18.6901L57.5104 20.0761V20.7481C57.5104 20.9441 57.4404 21.1681 57.3004 21.4201C57.1604 21.6441 57.0204 21.7561 56.8804 21.7561H56.1664L55.4944 21.4621C54.8504 20.4541 54.4024 19.8241 54.1504 19.5721C53.7024 19.0401 52.8484 17.8921 51.5884 16.1281C51.2804 15.6241 50.8324 14.9941 50.2444 14.2381C50.1884 14.0421 49.9364 13.6501 49.4884 13.0621C49.0684 12.4461 48.7884 12.0401 48.6484 11.8441C47.6964 10.6401 47.1924 9.91206 47.1364 9.66006L46.3804 8.61006V11.8441L46.2964 16.2541L46.2544 18.0181Z" fill="#8798D0"/>
<path d="M30.1485 10.122C30.2325 9.28198 30.2745 8.65198 30.2745 8.23199V7.93799L30.3165 7.05599L30.4005 6.04799V5.79599C30.4005 5.37599 30.5825 4.64799 30.9465 3.61198L31.2405 3.23399L31.8705 2.98199L32.2905 3.06599L32.6685 3.73799L32.5845 12.726L32.6265 15.204L32.6685 16.128L32.7945 17.094L33.0465 18.06L33.4665 18.438L33.8865 18.732L34.5165 18.858L35.0205 18.48C35.1325 18.34 35.2865 18.004 35.4825 17.472C35.7065 16.912 35.8185 16.548 35.8185 16.38C35.8185 16.24 35.8885 15.932 36.0285 15.456C36.0845 15.232 36.1545 14.91 36.2385 14.49C36.3225 14.07 36.3645 13.776 36.3645 13.608L36.5325 12.684L36.5745 11.424L36.7005 5.50199C36.7005 5.38998 36.5605 4.21399 36.2805 1.97399L36.1125 0.839985L36.8265 0.0839844H37.6665L37.9185 0.419985C37.9185 0.531985 38.0025 0.783985 38.1705 1.17599C38.3385 1.56799 38.4225 1.80599 38.4225 1.88999C38.6185 2.61799 38.7165 3.06598 38.7165 3.23399V3.61198L38.8425 4.70399C38.9265 5.15199 38.9685 5.51599 38.9685 5.79599L39.1365 9.57598L38.9685 12.726C38.9685 12.838 38.8845 13.286 38.7165 14.07C38.5485 14.966 38.4645 15.47 38.4645 15.582V15.834C38.4645 16.002 38.3525 16.45 38.1285 17.178C38.0725 17.402 38.0165 17.626 37.9605 17.85C37.9045 18.046 37.8625 18.228 37.8345 18.396C37.8345 18.564 37.7225 18.774 37.4985 19.026C37.4985 19.166 37.3865 19.418 37.1625 19.782C36.9385 20.146 36.7425 20.426 36.5745 20.622L35.9445 21.252C35.7485 21.448 35.5525 21.546 35.3565 21.546L34.0965 21.672C33.9005 21.672 33.4805 21.574 32.8365 21.378L32.2065 20.748C31.5625 20.356 31.2405 20.034 31.2405 19.782C31.2405 19.586 31.0025 19.082 30.5265 18.27C30.4145 17.99 30.3165 17.5 30.2325 16.8C30.1765 16.072 30.1485 15.54 30.1485 15.204L30.0645 11.802L30.1485 10.122Z" fill="#8798D0"/>
<path d="M15.1014 14.4059L15.0594 13.7339L15.3954 12.8939L16.4874 12.0119L16.5714 8.77795V6.55195L15.1854 7.05595C15.1294 7.05595 14.9754 7.11195 14.7234 7.22395C14.4714 7.33595 14.2894 7.39195 14.1774 7.39195L13.3794 7.22395L13.1274 6.71995V6.13195C13.2674 5.99195 13.4074 5.82395 13.5474 5.62795C13.6874 5.40395 13.8414 5.20795 14.0094 5.03995C14.0934 5.03995 14.2754 4.95595 14.5554 4.78795C14.8354 4.61995 15.0874 4.47995 15.3114 4.36795L15.8154 4.07395C16.7674 3.59795 18.3494 3.00995 20.5614 2.30995L22.1574 1.76395L24.4674 1.59595L25.1394 1.97395L25.2654 2.39395C25.2094 2.58995 25.0974 2.75795 24.9294 2.89795C24.7614 3.00995 24.5934 3.07995 24.4254 3.10795L23.3754 3.65395L22.5774 4.03195L21.2334 4.45195L20.3934 4.82995C20.3374 4.82995 20.0294 4.94195 19.4694 5.16595C19.3014 5.22195 19.0914 5.30595 18.8394 5.41795C18.6154 5.50195 18.4754 5.54395 18.4194 5.54395L18.7974 6.38395L18.8814 7.34995L18.8394 10.7099C18.9514 10.6259 19.5674 10.3459 20.6874 9.86995C21.1914 9.70195 21.6674 9.50595 22.1154 9.28195C22.8154 8.91795 23.2634 8.73595 23.4594 8.73595L24.2994 8.44195C24.4394 8.44195 24.7894 8.35795 25.3494 8.18995H27.0294V9.02995L26.6934 9.28195C26.6094 9.33795 25.9094 9.67395 24.5934 10.2899L23.4594 10.7939L22.4094 11.4659L21.7794 11.7179C21.6954 11.8299 21.0794 12.2079 19.9314 12.8519C19.4834 13.0759 19.1334 13.2719 18.8814 13.4399V17.2199L18.8394 18.7319L19.9314 18.2699C21.1634 17.7099 22.2134 17.2619 23.0814 16.9259C23.9494 16.5899 24.7334 16.3659 25.4334 16.2539L26.7774 16.0019L27.8694 15.9599L28.1214 16.1699L28.2474 16.4639L27.7434 17.0519C27.4074 17.3039 27.1694 17.5139 27.0294 17.6819C26.3854 18.1019 25.9514 18.3119 25.7274 18.3119C25.6154 18.3119 25.2234 18.4799 24.5514 18.8159C23.8794 19.1799 23.4734 19.3619 23.3334 19.3619C23.1654 19.3619 22.8154 19.5159 22.2834 19.8239C21.7514 20.1039 21.4014 20.2859 21.2334 20.3699L20.3934 20.9159C20.3094 20.9159 20.0574 21.0699 19.6374 21.3779C19.2454 21.6579 18.9934 21.7979 18.8814 21.7979C18.5454 21.9939 18.2654 22.0919 18.0414 22.0919L17.1174 22.2599L16.5714 22.0499L16.3614 21.7139L16.0254 21.2099L16.4454 19.6559L16.4874 18.5219L16.4454 14.6159L15.6894 14.7419L15.1014 14.4059Z" fill="#8798D0"/>
<path d="M4.116 12.7259C4.116 12.8659 3.92 13.1039 3.528 13.4399C3.472 13.4959 3.346 13.6219 3.15 13.8179C2.954 14.0139 2.856 14.1679 2.856 14.2799L2.562 14.6159V20.5799L2.352 21.2099L2.016 21.5459H1.68L0.924 21.1679C0.728 20.6639 0.63 20.2999 0.63 20.0759V19.3619L0.504 18.1439C0.392 17.4159 0.336 16.9679 0.336 16.7999L0.252 14.4899L0.168 12.9359L0 6.55187C0 6.27187 0.0560001 5.40387 0.168 3.94787L0.336 1.59587C0.532 1.39987 0.714 1.23187 0.882 1.09187C1.078 0.923866 1.26 0.839867 1.428 0.839867H1.806L2.142 1.17587C2.142 1.45587 2.282 1.80587 2.562 2.22587V11.5079L4.368 9.15587C4.9 8.67987 5.852 7.46187 7.224 5.50187C7.56 5.16587 8.12 4.40987 8.904 3.23387L9.66 2.22587C10.528 1.35787 10.962 0.923868 10.962 0.923868L11.844 0.713867L12.222 0.839867V1.17587C11.802 1.84787 11.592 2.30987 11.592 2.56187C11.116 3.00987 10.878 3.35987 10.878 3.61187C10.71 3.77987 10.262 4.42387 9.534 5.54387C8.862 6.55187 8.484 7.09787 8.4 7.18187C8.12 7.43387 7.56 8.25987 6.72 9.65987L7.56 10.7939C7.56 10.9899 7.756 11.3399 8.148 11.8439C8.456 12.2639 8.61 12.5159 8.61 12.5999C10.934 16.6039 12.096 18.7319 12.096 18.9839C12.6 19.5439 12.852 19.9639 12.852 20.2439C12.852 20.4679 12.978 20.8179 13.23 21.2939V22.0499L12.096 22.1759L10.71 20.7479L10.374 20.0759L9.282 18.5639C9.114 18.4239 8.904 18.1019 8.652 17.5979C8.456 17.1499 8.274 16.8419 8.106 16.6739L5.04 11.7179L4.116 12.7259Z" fill="#8798D0"/>
</svg>
